<svg xmlns="http://www.w3.org/2000/svg" width="1024" height="1024" viewBox="0 0 1024 1024">
<g fill="none" stroke-linecap="round" stroke-linejoin="round" stroke-width="160">
<path d="M 780 240 C 520 80 240 140 240 340 C 240 520 784 460 784 644 C 784 860 300 940 244 764" fill="none" stroke="#2563EB" stroke-dasharray="483.61 1522.82" stroke-dashoffset="-0.00"/>
<path d="M 780 240 C 520 80 240 140 240 340 C 240 520 784 460 784 644 C 784 860 300 940 244 764" fill="none" stroke="#059669" stroke-dasharray="483.61 1522.82" stroke-dashoffset="-501.61"/>
<path d="M 780 240 C 520 80 240 140 240 340 C 240 520 784 460 784 644 C 784 860 300 940 244 764" fill="none" stroke="#E11D48" stroke-dasharray="483.61 1522.82" stroke-dashoffset="-1003.21"/>
<path d="M 780 240 C 520 80 240 140 240 340 C 240 520 784 460 784 644 C 784 860 300 940 244 764" fill="none" stroke="#334155" stroke-dasharray="483.61 1522.82" stroke-dashoffset="-1504.82"/>
</g></svg>
